<svg id="tvarphzild-Layer_1" class="svg fill-white w-8 h-8" xmlns="http://www.w3.org/2000/svg" data-name="Layer 1" viewBox="0 0 100 100">
  <defs>
    <style>
      .tvarphzild-cls-1 {
        fill: #00a7ce;
      }
    </style>
  </defs>
  <path class="tvarphzild-cls-1" d="M99.79,42.6c-.48-.95-1.64-1.34-2.6-.86l-10.56,5.31c4.34-3.96,7.06-9.66,7.06-15.99,0-11.95-9.69-21.64-21.64-21.64-11.21,0-20.43,8.52-21.53,19.44-.62-.84-1.56-1.43-2.67-1.56l-20.48-2.33s-.03,0-.05,0c-3.01-.39-5.98,1.35-7.04,4.32l-6.82,19.19c-.41.76-.65,1.64-.65,2.57v14.39l-7.21,11.97c-1.54,2.56-.72,5.89,1.84,7.43.81.49,1.7.73,2.59.76l-8.98,4.52c-.95.48-1.34,1.64-.86,2.6.34.68,1.02,1.07,1.73,1.07.29,0,.59-.07.87-.21l96.13-48.39c.95-.48,1.34-1.64.86-2.6ZM47.42,35.01c1.27,0,2.41-.63,3.12-1.61,1.17,10.85,10.35,19.3,21.52,19.3,1.42,0,2.81-.14,4.15-.4l-36.52,18.38c.33-.55.58-1.16.7-1.83l2.98-15.94c.3-1.58-.13-3.22-1.16-4.45-1.03-1.24-2.56-1.96-4.17-1.96h-9.92l4.56-12.83c.04-.11.06-.21.1-.32l14.2,1.61c.15.02.3.02.44.02ZM14.89,83.01l7.99-13.26c.51-.84.78-1.81.78-2.8v-9.62c.19.02.37.03.57.03h7.3l-1.78,9.53c-.55,2.94,1.39,5.77,4.33,6.32.17.03.34.05.5.07l-19.87,10c.06-.09.13-.17.18-.26Z"></path>
  <circle class="tvarphzild-cls-1" cx="28.81" cy="14.3" r="8.1" transform="translate(-3.28 12.11) rotate(-22.5)"></circle>
</svg>