<svg id="fvybqzfezt-Layer_1" class="svg fill-white w-6 h-6" xmlns="http://www.w3.org/2000/svg" viewBox="0 0 100 100">
  <defs>
    <style>
      .fvybqzfezt-cls-1 {
        fill: #fff;
      }
    </style>
  </defs>
  <path class="fvybqzfezt-cls-1" d="M96.41,55.2s-2.84,6.92-13.37,12.49c-10.53,5.57-32.98,17.44-32.98,17.44l.08-.3-.14.27s0-.02,0-.03c0,0,0,.03,0,.03l-.14-.27.08.3s-22.45-11.87-32.98-17.44c-10.53-5.57-13.37-12.49-13.37-12.49C-8.95,30.86,15.4,18.03,15.4,18.03l.15.15-.09-.18s21.51-10.81,34.54,7.72c13.04-18.54,34.54-7.72,34.54-7.72l-.09.18.15-.15s24.34,12.82,11.81,37.17Z"></path>
</svg>