<svg id="qctxozrbyi-Layer_1" class="svg fill-primary w-full h-full" xmlns="http://www.w3.org/2000/svg" viewBox="0 0 100 100">
  <defs>
    <style>
      .qctxozrbyi-cls-1 {
        fill: #00a7ce;
      }
    </style>
  </defs>
  <rect class="qctxozrbyi-cls-1" x="35.66" y="49.64" width="11.7" height="6.22"></rect>
  <rect class="qctxozrbyi-cls-1" x="35.66" y="60.63" width="11.7" height="6.22"></rect>
  <rect class="qctxozrbyi-cls-1" x="52.38" y="49.64" width="11.7" height="6.22"></rect>
  <rect class="qctxozrbyi-cls-1" x="52.38" y="60.58" width="11.7" height="6.22"></rect>
  <rect class="qctxozrbyi-cls-1" x="35.66" y="71.52" width="11.7" height="6.22"></rect>
  <rect class="qctxozrbyi-cls-1" x="52.38" y="71.52" width="11.7" height="6.22"></rect>
  <path class="qctxozrbyi-cls-1" d="M96.78,41.75h-4.54c-.28,0-.53-.21-.59-.51-1.08-5.19-3.11-10.08-6.03-14.53-.15-.23-.11-.54.1-.75l3.2-3.2c1.25-1.25,1.25-3.29,0-4.55l-7.13-7.13c-1.25-1.25-3.29-1.25-4.55,0l-3.19,3.19c-.21.21-.52.25-.75.1-4.45-2.92-9.34-4.94-14.54-6.02-.3-.06-.51-.31-.51-.59V3.22c0-1.77-1.44-3.22-3.22-3.22h-10.08c-1.77,0-3.22,1.44-3.22,3.22v4.54c0,.28-.21.53-.51.59-5.19,1.08-10.08,3.11-14.54,6.02-.23.15-.54.11-.75-.1l-3.19-3.19c-1.25-1.25-3.29-1.25-4.55,0l-7.13,7.13c-1.25,1.25-1.25,3.29,0,4.55l3.2,3.2c.21.21.25.52.1.75-2.92,4.45-4.95,9.34-6.03,14.53-.06.3-.3.51-.59.51H3.22C1.45,41.75,0,43.19,0,44.96v10.08c0,1.77,1.44,3.22,3.22,3.22h4.54c.28,0,.53.21.59.51,1.08,5.19,3.11,10.08,6.03,14.54.15.23.11.54-.1.75l-3.2,3.2c-.61.61-.94,1.42-.94,2.27,0,.86.33,1.67.94,2.27l7.13,7.12c1.25,1.25,3.29,1.25,4.55,0l3.19-3.19c.21-.21.52-.25.75-.1,4.45,2.91,9.34,4.94,14.53,6.03.3.06.51.31.51.59v4.54c0,1.77,1.44,3.22,3.22,3.22h10.08c1.77,0,3.22-1.44,3.22-3.22v-4.54c0-.29.21-.53.51-.59,5.2-1.09,10.09-3.12,14.53-6.03.23-.15.54-.11.75.1l3.19,3.19c1.25,1.25,3.29,1.25,4.55,0l7.13-7.12c.61-.61.94-1.42.94-2.27,0-.86-.33-1.67-.94-2.27l-3.2-3.2c-.21-.21-.25-.52-.1-.75,2.92-4.46,4.95-9.35,6.03-14.54.06-.3.31-.51.59-.51h4.54c1.77,0,3.22-1.44,3.22-3.22v-10.08c0-1.77-1.44-3.22-3.22-3.22ZM50,84.58c-7.51,0-14.45-2.45-20.07-6.59v-33.48h40.14v33.48c-5.62,4.14-12.56,6.59-20.07,6.59ZM64.73,39.23h-29.19v-5.45h29.19v5.45ZM75.34,73.17v-31.3c0-1.46-1.18-2.64-2.64-2.64h-2.7v-8.09c0-1.46-1.18-2.64-2.64-2.64h-34.46c-1.46,0-2.64,1.18-2.64,2.64v8.09h-2.98c-1.46,0-2.64,1.18-2.64,2.64v31.3c-5.3-5.98-8.53-13.84-8.53-22.46,0-18.71,15.16-33.87,33.87-33.87s33.87,15.16,33.87,33.87c0,8.62-3.22,16.48-8.53,22.46Z"></path>
</svg>