<svg id="bcjhpizlim-Layer_1" class="svg fill-white w-8 h-8" xmlns="http://www.w3.org/2000/svg" viewBox="0 0 100 100">
  <defs>
    <style>
      .bcjhpizlim-cls-1 {
        fill: #00a7ce;
      }
    </style>
  </defs>
  <path class="bcjhpizlim-cls-1" d="M90.82,50c0,5.51-1.08,10.86-3.2,15.88-2.05,4.86-5,9.23-8.75,12.98-3.75,3.75-8.12,6.69-12.98,8.75-5.03,2.13-10.37,3.2-15.88,3.2s-10.86-1.08-15.89-3.2c-4.86-2.06-9.23-5-12.97-8.75-3.75-3.75-6.69-8.12-8.75-12.98-2.13-5.03-3.21-10.37-3.21-15.88s1.08-10.86,3.21-15.89c2.05-4.86,5-9.23,8.75-12.97,3.75-3.75,8.12-6.69,12.97-8.75,5.03-2.13,10.38-3.21,15.89-3.21s10.86,1.08,15.88,3.21c4.86,2.05,9.23,5,12.98,8.75,3.75,3.75,6.69,8.12,8.75,12.97,2.13,5.03,3.2,10.37,3.2,15.89M96.07,30.54c-1.25-2.96-2.8-5.82-4.61-8.5-1.79-2.65-3.84-5.13-6.1-7.39s-4.75-4.32-7.4-6.1c-2.67-1.81-5.53-3.36-8.49-4.61-6.17-2.61-12.72-3.93-19.46-3.93s-13.3,1.32-19.46,3.93c-2.96,1.25-5.82,2.8-8.5,4.61-2.65,1.79-5.13,3.84-7.39,6.1-2.26,2.26-4.31,4.75-6.1,7.39-1.81,2.67-3.36,5.53-4.61,8.5C1.32,36.7,0,43.25,0,50s1.32,13.3,3.93,19.46c1.25,2.97,2.8,5.82,4.61,8.5,1.79,2.65,3.84,5.14,6.1,7.4,2.26,2.26,4.75,4.31,7.39,6.1,2.67,1.81,5.53,3.36,8.5,4.61,6.17,2.61,12.72,3.93,19.46,3.93s13.3-1.32,19.46-3.93c2.97-1.25,5.82-2.8,8.49-4.61,2.65-1.79,5.14-3.84,7.4-6.1,2.26-2.26,4.31-4.75,6.1-7.4,1.81-2.67,3.36-5.53,4.61-8.5,2.61-6.16,3.93-12.71,3.93-19.46s-1.32-13.3-3.93-19.46M60.76,25.64c-3.88,4.77-12.27,15.42-15.42,22.13-1.23,2.63-.13,5.79,2.5,7.02,2.63,1.24,5.76.1,6.99-2.53,3.09-6.63,6.07-19.93,7.32-25.96.17-.81-.87-1.31-1.39-.66M52.03,13.47h-4.06v4.92h4.06v-4.92ZM22.74,25.61l3.48,3.48,2.87-2.88-3.48-3.48-2.87,2.87ZM13.47,52.03h4.92v-4.06h-4.92v4.06ZM22.74,74.39l2.87,2.87,3.48-3.48-2.87-2.88-3.48,3.48ZM70.91,73.78l3.48,3.48,2.87-2.88-3.48-3.48-2.87,2.87ZM81.6,52.03h4.92v-4.06h-4.92v4.06ZM70.91,26.21l2.87,2.87,3.48-3.48-2.87-2.88-3.48,3.48Z"></path>
</svg>