<svg id="onktwnrsne-Layer_1" class="svg fill-white w-8 h-8" xmlns="http://www.w3.org/2000/svg" version="1.1" viewBox="0 0 100 100">
  <defs>
    <style>
      .onktwnrsne-st0 {
        fill: #00a7ce;
      }
    </style>
  </defs>
  <path class="onktwnrsne-st0" d="M50,0C22.4,0,0,22.4,0,50s22.4,50,50,50,50-22.4,50-50S77.6,0,50,0ZM50,93.5c-5.9,0-11.6-1.1-16.9-3.4-5.2-2.2-9.8-5.3-13.8-9.3s-7.1-8.7-9.3-13.8c-2.3-5.4-3.4-11.1-3.4-16.9s1.1-11.6,3.4-16.9c1.8-4.2,4.2-8,7.1-11.5l8.3,8.3c-1,1.5-1.8,3.2-2.2,5-.2,0-.4,0-.6,0-6.8,0-12.3,5.5-12.3,12.3s5.5,12.3,12.3,12.3,2.3-.2,3.4-.5c1.7,3.4,5.1,5.5,9,5.5s4.9-.9,6.8-2.6c2.2,1.6,4.9,2.5,7.7,2.5s5.7-1,7.9-2.6l21.1,21.1c-3.4,3-7.3,5.3-11.5,7.1-5.4,2.3-11.1,3.4-16.9,3.4ZM56,44.1c2,1.9,3.1,4.4,3.1,7.1s-.1,1.9-.4,2.8l-26.2-26.2c1.6-.8,3.4-1.3,5.4-1.3,3.3,0,6.3,1.3,8.6,3.7l.9.9,1.1-.6c.9-.5,2-.7,3-.7,3.7,0,6.7,3,6.7,6.7s-.8,3.7-2.2,4.9l-1.4,1.2,1.3,1.3ZM26.2,37c.2-1.7.8-3.3,1.6-4.7l27,27c-1.6,1-3.4,1.7-5.4,1.7s-4.9-.9-6.7-2.6l-1.4-1.3-1.1,1.5c-1.3,1.6-3.2,2.6-5.3,2.6-3,0-5.6-1.9-6.4-4.8l-.6-1.9-1.8.8c-1.2.5-2.4.8-3.6.8-4.9,0-8.9-4-8.9-8.9s4-8.9,8.9-8.9,1.1,0,1.7.2l1.8.3.2-1.8ZM83,78.4l-21.6-21.6c.8-1.7,1.2-3.5,1.2-5.5,0-3.1-1.1-6.1-3-8.4,1.4-1.8,2.1-3.9,2.1-6.2,0-5.6-4.5-10.1-10.1-10.1s-2.3.2-3.4.6c-2.8-2.5-6.4-3.9-10.2-3.9s-5.6.8-7.9,2.2l-8.4-8.4c3.4-3,7.3-5.3,11.5-7.1,5.4-2.3,11.1-3.4,16.9-3.4s11.6,1.1,16.9,3.4c5.2,2.2,9.8,5.3,13.8,9.3s7.1,8.7,9.3,13.8c2.3,5.4,3.4,11.1,3.4,16.9s-1.1,11.6-3.4,16.9c-1.8,4.2-4.2,8-7.1,11.5ZM52.7,16.7c0,2.2-1.8,3.9-3.9,3.9s-3.9-1.8-3.9-3.9,1.8-3.9,3.9-3.9,3.9,1.8,3.9,3.9ZM33.2,74.2c0,2.2-1.8,3.9-3.9,3.9s-3.9-1.8-3.9-3.9,1.8-3.9,3.9-3.9,3.9,1.8,3.9,3.9ZM28.4,46.9c0-2.2,1.8-3.9,3.9-3.9s3.9,1.8,3.9,3.9-1.8,3.9-3.9,3.9-3.9-1.8-3.9-3.9ZM86.3,63.6c0,2.2-1.8,3.9-3.9,3.9s-3.9-1.8-3.9-3.9,1.8-3.9,3.9-3.9,3.9,1.8,3.9,3.9ZM63.3,79.7h-.3c0,0,.3,2.4.3,2.4.2,1.2-.7,2.3-1.9,2.5,0,0-.2,0-.3,0-1.1,0-2.1-.8-2.2-1.9l-.4-2.9c-.3,0-.6,0-1,0l-.4,3.1c-.1,1.1-1.1,2-2.2,2s-.2,0-.3,0c-1.2-.1-2.1-1.2-1.9-2.5l.2-2.1c-2.2.5-4.6,1.5-7.2,3.3-.8.6-1.8.8-2.7.8-1.5,0-3-.7-4-2.1-1.5-2.2-.8-5.2,1.4-6.7.9-.6,1.9-1.2,2.8-1.7l-1.1-1.5c-.7-1-.5-2.4.6-3.1,1-.7,2.4-.5,3.1.6l1.6,2.2c.3-.1.7-.2,1-.3l-.8-2.2c-.4-1.1.1-2.4,1.3-2.9,1.1-.4,2.4.1,2.9,1.3l1,2.7c.5,0,1-.1,1.4-.2v-.9c.2-1.2,1.3-2.1,2.6-1.9,1.2.1,2.1,1.2,1.9,2.5v.2c1.8,0,3.2.3,4.1.4.6.1,1.1.3,1.6.7.2.2.4.3.4.3,3.3,2.1,2.4,7.2-1.5,8ZM78.6,53.1c-2.7,2-6.4.3-6.9-2.8l-2.2.3c0,0-.2,0-.3,0-1.1,0-2.1-.8-2.2-1.9-.2-1.2.7-2.3,1.9-2.5l3.1-.4c0-.3,0-.6,0-1l-3.3-.4c-1.2-.1-2.1-1.2-1.9-2.5.1-1.2,1.2-2.1,2.5-1.9l2.1.2c-.6-2-1.6-4.5-3.4-7.4-1.4-2.3-.7-5.3,1.6-6.7,2.2-1.3,5.2-.6,6.5,1.6.6.9,1.1,1.9,1.6,2.8l1.6-1.1c1-.7,2.4-.5,3.1.6.7,1,.5,2.4-.6,3.1l-2.3,1.6c.1.3.3.7.4,1l2.2-.8c1.1-.4,2.4.1,2.9,1.3.4,1.1-.1,2.4-1.3,2.9l-2.5.9c.1.5.2,1,.3,1.5h.6c1.2.2,2.1,1.3,1.9,2.5-.1,1.1-1.1,2-2.2,2s0,0,0,0c0,1.2-.2,2.3-.4,3.1-.4,1.6-1.3,3.1-2.6,4.1h0Z"></path>
</svg>