<svg id="mkpepxdgfv-Layer_1" class="svg fill-primary w-full h-full" xmlns="http://www.w3.org/2000/svg" viewBox="0 0 100 100">
  <defs>
    <style>
      .mkpepxdgfv-cls-1 {
        fill: #00a7ce;
      }
    </style>
  </defs>
  <path class="mkpepxdgfv-cls-1" d="M97.16,95.08c-6.82-2.73-18.23-7.29-18.23-12.88,0-2.37.9-4.69,2.03-7.63,1.88-4.87,4.23-10.94,4.23-21.02v-22.44c0-10.15-8.6-31.11-35.19-31.11S14.81,20.96,14.81,31.11v22.44c0,10.08,2.34,16.15,4.22,21.02,1.13,2.94,2.03,5.26,2.03,7.63,0,5.59-11.41,10.16-18.23,12.88-1.31.52-1.94,2.01-1.42,3.32.4,1,1.36,1.6,2.37,1.6.31,0,.64-.06.95-.18,9.05-3.62,21.43-8.57,21.43-17.62,0-3.32-1.1-6.17-2.37-9.47-1.73-4.48-3.88-10.05-3.88-19.19v-22.44c0-8.48,7.35-26,30.08-26s30.08,17.52,30.08,26v22.44c0,9.13-2.15,14.71-3.88,19.19-1.27,3.3-2.37,6.15-2.37,9.47,0,9.05,12.39,14,21.43,17.62,1.31.52,2.79-.11,3.32-1.42.52-1.31-.11-2.79-1.42-3.32Z"></path>
  <path class="mkpepxdgfv-cls-1" d="M70.03,52.01h.37c3.66,0,6.63-2.97,6.63-6.63v-10.2c0-3.45-2.64-6.28-6.01-6.6-.03-.11-.06-.22-.11-.32-3.73-8.39-11.53-13.53-20.92-13.75-9.71,0-17.87,6.92-20.92,13.75-.05.11-.07.21-.11.32-3.36.32-6.01,3.15-6.01,6.6v10.2c0,3.66,2.97,6.63,6.63,6.63h.37c-2.23,2.17-4.12,5.14-4.12,9.76,0,8.57,8.6,20.96,24.15,20.96s24.15-12.39,24.15-20.96c0-4.62-1.89-7.59-4.12-9.76ZM49.94,19.61c8.85.21,13.35,5.42,15.4,8.94h-30.64c2.87-4.69,8.61-8.94,15.24-8.94ZM50,77.63c-12.27,0-19.05-9.38-19.05-15.86,0-4.5,2.75-6.47,5.67-8.55,1.08-.77,2.1-1.5,2.98-2.37,5.35-5.25,8.95-7.11,10.41-7.11s5.05,1.86,10.4,7.11c.88.86,1.9,1.59,2.98,2.37,2.91,2.08,5.66,4.05,5.66,8.55,0,6.48-6.78,15.86-19.05,15.86Z"></path>
  <path class="mkpepxdgfv-cls-1" d="M50,50.01c-4.28,0-10.24,7-11.39,8.4-.54.65-.44,1.62.21,2.15.28.23.63.35.97.35.44,0,.88-.19,1.18-.56,2.94-3.58,7.12-7.28,9.03-7.28s6.09,3.7,9.03,7.28c.54.65,1.5.75,2.15.21.65-.54.75-1.5.21-2.15-1.15-1.4-7.11-8.4-11.39-8.4Z"></path>
</svg>