<svg id="xjxkwjpmbs-Layer_1" class="svg fill-white w-6 h-6" xmlns="http://www.w3.org/2000/svg" viewBox="0 0 100 100">
  <defs>
    <style>
      .xjxkwjpmbs-cls-1 {
        fill: #fff;
      }
    </style>
  </defs>
  <path class="xjxkwjpmbs-cls-1" d="M61.77,76.95c0,22.83-22.94,23.05-22.94,23.05v-.17l-.06.17s-22.94-.21-22.94-23.05c0,0-.54-6.22,5.15-14.36,5.68-8.15,17.79-25.51,17.79-25.51l.06.25v-.25s12.11,17.37,17.79,25.51c5.68,8.15,5.15,14.36,5.15,14.36ZM56.72,37.37c3.32,2.68,3.32,13.83,3.32,13.83,0,0,.54-9.54,3-13.61,2.29-3.79,12.09-3.96,13.45-3.97h-33.07s9.97,1.07,13.29,3.75ZM76.5,33.62h.16s-.06,0-.16,0ZM76.66,33.62h-.16c.1,0,.16,0,.16,0ZM63.05,29.66c-2.47-4.07-3-13.61-3-13.61,0,0,0,11.15-3.32,13.83-3.32,2.68-13.29,3.75-13.29,3.75h33.07c-1.36,0-11.16-.18-13.45-3.97ZM80.21,44.29c1.66,1.34,1.66,6.91,1.66,6.91,0,0,.27-4.77,1.5-6.81,1.15-1.89,6.05-1.98,6.73-1.98h-16.53s4.98.54,6.65,1.88ZM90.1,42.41h.08s-.03,0-.08,0ZM90.18,42.41h-.08c.05,0,.08,0,.08,0ZM83.37,40.43c-1.23-2.04-1.5-6.81-1.5-6.81,0,0,0,5.57-1.66,6.91-1.66,1.34-6.65,1.88-6.65,1.88h16.53c-.68,0-5.58-.09-6.73-1.98ZM50.08,10.67c1.66,1.34,1.66,6.91,1.66,6.91,0,0,.27-4.77,1.5-6.81,1.15-1.89,6.05-1.98,6.73-1.98h-16.53s4.98.54,6.65,1.88ZM59.96,8.79h.08s-.03,0-.08,0ZM60.05,8.79h-.08c.05,0,.08,0,.08,0ZM53.24,6.81C52.01,4.77,51.74,0,51.74,0,51.74,0,51.74,5.57,50.08,6.91c-1.66,1.34-6.65,1.88-6.65,1.88h16.53c-.68,0-5.58-.09-6.73-1.98Z"></path>
</svg>