<svg id="ydtdjqfusy-Layer_1" class="svg fill-white w-8 h-8" xmlns="http://www.w3.org/2000/svg" viewBox="0 0 100 100">
  <defs>
    <style>
      .ydtdjqfusy-cls-1 {
        fill: #00a7ce;
      }
    </style>
  </defs>
  <path class="ydtdjqfusy-cls-1" d="M77.46,46.18l-42.72,53.4c-.77.96-2.29.13-1.91-1.03l12.69-39.21-20.46,1.97c-.82.08-1.32-.86-.82-1.51L71.28.43c.78-.99,2.34-.11,1.9,1.07l-16.71,45.12,20.18-1.95c.82-.08,1.33.87.81,1.51ZM31.44,79.9c-9.99-6.21-16.64-17.28-16.64-29.9,0-19.44,15.76-35.2,35.2-35.2.29,0,.59,0,.88.01.43.01.84-.17,1.1-.51l5.44-6.87c.59-.75.16-1.86-.78-2-2.17-.32-4.38-.49-6.63-.49-25.2,0-45.69,21.04-45.04,46.23.42,16.14,9.32,30.17,22.42,37.79.67.39,1.53.09,1.8-.64l2.68-7.24c.16-.45-.01-.94-.42-1.19ZM77.19,14.08c-.66-.5-1.63-.22-1.92.56l-2.67,7.22c-.2.54-.03,1.13.4,1.5,7.47,6.46,12.2,15.99,12.2,26.64,0,17.6-12.92,32.17-29.79,34.77-.33.05-.64.23-.86.5l-6.01,7.58c-.7.88-.08,2.19,1.05,2.2.14,0,.28,0,.42,0,24.88,0,45.05-20.17,45.05-45.05,0-14.67-7.01-27.69-17.86-35.92Z"></path>
</svg>