<svg id="gzncomyqsk-Layer_1" class="svg fill-white w-8 h-8" xmlns="http://www.w3.org/2000/svg" version="1.1" viewBox="0 0 100 100">
  <defs>
    <style>
      .gzncomyqsk-st0 {
        fill: #00a7ce;
      }
    </style>
  </defs>
  <path class="gzncomyqsk-st0" d="M32.8,69.7l.4,2.9-8.9,22.1c-1.2,2.9-3.9,4.7-6.9,4.7s-1.9-.2-2.8-.6c-3.8-1.6-5.6-6-4-9.8l11.3-28.1.4-3.4c.7,1,1.5,1.9,2.4,2.7l8,9.6ZM71.8,18.9c-1.5-6.6-8.5-10.3-14.7-7.5-6.2,2.8-11.9,6.5-17,10.9-6.5,5.8-11.7,12.8-15.6,20.8-.5,1-.9,1.9-1.3,2.9-1.1,2.5-1.1,5.2-.4,7.5,0,0,0,.2,0,.3,0,.1,0,.2.1.3.7,1.9,1.9,3.5,3.4,4.7l8.3,10h0c0,.1,3.6,24.7,3.6,24.7.6,4.1,4.4,6.9,8.4,6.3,3.7-.6,6.3-3.8,6.3-7.4s0-.7,0-1.1l-3.9-26.8c-.3-1.8-1.1-3.3-2.3-4.4,0,0,0,0,0,0l-4.1-4.9c0-.1.1-.3.2-.4,2.1-5,5.6-10.8,11.2-15.8v-18.6c0-4.2,3.3-7.6,7.5-7.6s7.5,3.4,7.5,7.6v8.7c2.5-2.6,3.7-6.4,2.9-10.1M61.4,14.9c-2.9,0-5.3,2.4-5.3,5.4v34.1c0,3,2.4,5.4,5.3,5.4s5.3-2.4,5.3-5.4V20.3c0-3-2.4-5.4-5.3-5.4M85,0C77.9,0,72,5.9,72,13.2s5.8,13.2,13,13.2,13-5.9,13-13.2S92.2,0,85,0M26.7,24c.8-.4,1.1-1.5.7-2.3l-7.8-14.9c-.4-.8-1.5-1.1-2.3-.7-.8.4-1.1,1.5-.7,2.3l7.8,14.9c.3.6.9.9,1.5.9s.5,0,.8-.2ZM21.7,31.8c.2-.9-.3-1.8-1.3-2l-16.4-3.9c-.9-.2-1.8.3-2,1.3-.2.9.3,1.8,1.3,2l16.4,3.9c.1,0,.3,0,.4,0,.8,0,1.5-.5,1.6-1.3ZM22.7,26c.5-.8.3-1.8-.5-2.3l-14-9.2c-.8-.5-1.8-.3-2.3.5s-.3,1.8.5,2.3l14,9.2c.3.2.6.3.9.3.5,0,1.1-.3,1.4-.8Z"></path>
</svg>