<svg id="tawzanxuri-Layer_1" class="svg fill-white w-6 h-6" xmlns="http://www.w3.org/2000/svg" viewBox="0 0 100 100">
  <defs>
    <style>
      .tawzanxuri-cls-1 {
        fill: #fff;
      }
    </style>
  </defs>
  <path class="tawzanxuri-cls-1" d="M53.69,15.69v-4.46h5.94V0h-21.79v11.22h5.94v4.72C23.36,18.9,7.6,36.52,7.6,57.75c0,23.3,18.95,42.25,42.25,42.25s42.25-18.95,42.25-42.25c0-22-16.9-40.12-38.4-42.06ZM49.85,89.21c-17.35,0-31.46-14.11-31.46-31.46s14.11-31.46,31.46-31.46,31.46,14.11,31.46,31.46-14.11,31.46-31.46,31.46ZM13.64,28.73l-6.22-6.22,7-7,6.22,6.22-7,7ZM86.4,28.7l-7-7,6.19-6.19,7,7-6.19,6.19ZM35.7,61.24l24.92-22.78-9.66,18.49h10.98l-24.51,21.71,9.08-17.33-10.81-.08Z"></path>
</svg>
