<svg id="khddbkprkk-Layer_1" class="svg fill-white w-6 h-6" xmlns="http://www.w3.org/2000/svg" viewBox="0 0 100 100">
  <defs>
    <style>
      .khddbkprkk-cls-1 {
        fill: #fff;
      }
    </style>
  </defs>
  <path class="khddbkprkk-cls-1" d="M89.53,29.65c-1.48,11.12-13.91,42.25-38.46,48.92-13.07,3.55-22.72,4.16-28.92,3.95-1.29,2.48-3.36,6.6-4.89,10.5-2.41,6.12-3.71,7.97-6.12,6.49-2.41-1.48-1.16-6.12.81-12.05,1.97-5.93,11.82-19.38,11.82-19.38h0c2.38-3.61,4.95-7.34,7.57-10.83,10.01-13.34,26.87-23.72,32.62-26.87,5.74-3.15,7.97-6.12,6.3-7.97s-3.52-1.67-11.49,2.78c-7.97,4.45-25.57,19.83-31.13,26.13-3.96,4.49-11.39,16.39-15.34,22.87-.96-7.8-.46-20.91,9.23-34.92,15.38-22.24,27.98-26.69,39.1-28.91S89.53,0,89.53,0c0,0,1.48,18.53,0,29.65Z"></path>
</svg>