<svg id="eqhpykajrm-Layer_1" class="svg fill-primary w-full h-full" xmlns="http://www.w3.org/2000/svg" viewBox="0 0 100 100">
  <defs>
    <style>
      .eqhpykajrm-cls-1 {
        fill: #00a7ce;
      }
    </style>
  </defs>
  <path class="eqhpykajrm-cls-1" d="M51.7,52.57l-.06-11.77c.84-.15,1.7-.28,2.56-.4,2.17-.3,3.37-.47,4.15-1.12.62-.51.96-1.24.97-2.06.03-1.98-2.11-4.25-3.31-5.36.3-.76.47-1.59.47-2.45,0-3.71-3.02-6.73-6.73-6.73s-6.73,3.02-6.73,6.73c0,3.07,2.07,5.66,4.88,6.46v1.95c-4.24,1.16-8.44,3.46-8.44,8.76s4.35,7.42,8.53,8.74l.06,12.69c-3.34,1.67-6.59,4.05-6.59,8.96,0,1.02.83,1.85,1.85,1.85s1.85-.83,1.85-1.85c0-2.23,1.06-3.57,2.91-4.74l.05,11.2c0,1.02.83,1.85,1.85,1.85s1.85-.83,1.85-1.85l-.06-13.07s.04-.02.07-.03c3.86-1.74,8.66-3.9,8.66-9.69,0-5.13-4.69-6.83-8.81-8.06ZM51.62,35.88c.78-.22,1.5-.59,2.14-1.06.58.57,1.12,1.2,1.48,1.7-.47.08-1.04.16-1.54.23-.63.09-1.33.19-2.07.3v-1.17ZM43.18,46.59c0-2.58,1.98-4.01,4.77-4.91l.05,9.75c-3.04-1.07-4.81-2.26-4.81-4.84ZM51.76,66.3l-.05-9.85c3.45,1.12,5.1,2.09,5.1,4.18,0,2.84-1.88,4.17-5.05,5.67Z"></path>
  <path class="eqhpykajrm-cls-1" d="M96.55,57.08l-12.26-7.08,12.26-7.08c1.42-.82,2.44-2.15,2.86-3.73.43-1.59.21-3.24-.61-4.67l-10.99-19.04c-.82-1.42-2.15-2.44-3.73-2.86-1.59-.43-3.24-.21-4.67.61l-12.26,7.08V6.15c0-3.39-2.76-6.15-6.15-6.15h-21.99c-3.39,0-6.15,2.76-6.15,6.15v14.16l-12.26-7.08c-1.42-.82-3.08-1.04-4.67-.61-1.59.42-2.91,1.44-3.73,2.86L1.2,34.52c-1.7,2.94-.69,6.7,2.25,8.4l12.26,7.08-12.26,7.08c-2.94,1.69-3.95,5.46-2.25,8.4l11,19.04c.82,1.42,2.15,2.44,3.73,2.86,1.59.42,3.24.21,4.67-.61l12.26-7.08v14.16c0,3.39,2.76,6.15,6.15,6.15h21.99c3.39,0,6.15-2.76,6.15-6.15v-14.16l12.26,7.08c2.94,1.7,6.7.69,8.4-2.25l10.99-19.04c1.7-2.94.69-6.7-2.25-8.4ZM94.4,62.94l-10.99,19.04c-.29.51-.95.69-1.46.39l-16.07-9.28c-.79-.45-1.75-.45-2.54,0-.79.45-1.27,1.29-1.27,2.2v18.56c0,.59-.48,1.07-1.07,1.07h-21.99c-.59,0-1.07-.48-1.07-1.07v-18.56c0-.91-.48-1.75-1.27-2.2-.39-.23-.83-.34-1.27-.34s-.88.11-1.27.34l-16.07,9.28c-.33.19-.65.15-.81.11-.16-.04-.46-.16-.65-.5l-10.99-19.04c-.29-.51-.12-1.16.39-1.46l16.07-9.28c.79-.45,1.27-1.29,1.27-2.2s-.48-1.75-1.27-2.2l-16.07-9.28c-.51-.29-.69-.95-.39-1.46l11-19.04c.19-.33.49-.45.65-.5.16-.04.48-.09.81.11l16.07,9.28c.79.45,1.75.45,2.54,0,.79-.45,1.27-1.29,1.27-2.2V6.15c0-.59.48-1.07,1.07-1.07h21.99c.59,0,1.07.48,1.07,1.07v18.56c0,.91.48,1.75,1.27,2.2.79.45,1.75.45,2.54,0l16.07-9.28c.33-.19.65-.15.81-.11.16.04.46.16.65.5l10.99,19.04c.19.33.15.65.11.81s-.16.46-.5.65l-16.07,9.28c-.79.45-1.27,1.29-1.27,2.2s.48,1.75,1.27,2.2l16.07,9.28c.51.29.68.95.39,1.46Z"></path>
</svg>