<svg id="omjnsbusje-Layer_1" class="svg fill-primary w-full h-full" xmlns="http://www.w3.org/2000/svg" viewBox="0 0 100 100">
  <defs>
    <style>
      .omjnsbusje-cls-1 {
        fill: #00a7ce;
      }
    </style>
  </defs>
  <path class="omjnsbusje-cls-1" d="M79.49,12.79h-8.29s0,0-.01,0c-.07-2.07-1.76-3.74-3.85-3.74h-5.6c-1.39,0-2.62-.94-2.97-2.29-1.01-3.89-4.55-6.77-8.76-6.77s-7.75,2.87-8.76,6.77c-.35,1.35-1.57,2.29-2.97,2.29h-5.6c-2.09,0-3.78,1.66-3.85,3.74,0,0,0,0-.01,0h-8.29c-4.11,0-7.45,3.34-7.45,7.45v72.32c0,4.11,3.34,7.45,7.45,7.45h58.97c4.11,0,7.45-3.34,7.45-7.45V20.24c0-4.11-3.34-7.45-7.45-7.45ZM50,6.17c1.6,0,2.89,1.29,2.89,2.89s-1.29,2.89-2.89,2.89-2.89-1.29-2.89-2.89,1.29-2.89,2.89-2.89ZM81.76,92.55c0,1.25-1.02,2.27-2.27,2.27H20.51c-1.25,0-2.27-1.02-2.27-2.27V20.24c0-1.25,1.02-2.27,2.27-2.27h8.29s.04,0,.06,0c.29,1.85,1.87,3.27,3.8,3.27h34.66c1.93,0,3.52-1.42,3.8-3.27.02,0,.04,0,.06,0h8.29c1.25,0,2.27,1.02,2.27,2.27v72.32Z"></path>
  <path class="omjnsbusje-cls-1" d="M67.58,41.6l-18.85,18.85-8.14-8.48c-.99-1.03-2.63-1.06-3.66-.07-1.03.99-1.06,2.63-.07,3.66l11.8,12.29,22.58-22.59c1.01-1.01,1.01-2.65,0-3.66-1.01-1.01-2.65-1.01-3.66,0Z"></path>
  <path class="omjnsbusje-cls-1" d="M69.15,52.34c-1.43.11-2.49,1.36-2.38,2.78.74,9.54-6.41,17.92-15.96,18.66-4.62.36-9.11-1.1-12.63-4.12-3.52-3.01-5.66-7.22-6.02-11.84-.36-4.62,1.1-9.11,4.12-12.63,3.01-3.52,7.22-5.66,11.84-6.02,3.95-.31,7.77.7,11.05,2.91,1.19.8,2.79.49,3.59-.7.8-1.19.49-2.79-.7-3.59-4.26-2.87-9.22-4.18-14.35-3.78-6,.47-11.46,3.25-15.38,7.82-3.91,4.58-5.81,10.4-5.34,16.4.92,11.8,10.81,20.79,22.45,20.79.58,0,1.18-.02,1.77-.07,12.39-.97,21.68-11.83,20.72-24.22-.11-1.43-1.37-2.48-2.78-2.38Z"></path>
</svg>