<svg id="erdjmkgclo-Layer_1" class="svg fill-primary w-full h-full" xmlns="http://www.w3.org/2000/svg" viewBox="0 0 100 100">
  <defs>
    <style>
      .erdjmkgclo-cls-1 {
        fill: #00a7ce;
      }
    </style>
  </defs>
  <path class="erdjmkgclo-cls-1" d="M57.33,80.79c-1.32,0-2.39,1.07-2.39,2.39v10.51c0,.72-.59,1.31-1.31,1.31h-7.69c-.72,0-1.31-.59-1.31-1.31v-10.51c0-1.12-.77-2.08-1.86-2.33-3.48-.79-6.78-2.16-9.82-4.07-.95-.6-2.17-.46-2.97.33l-7.44,7.44c-.5.5-1.36.5-1.86,0l-5.44-5.44c-.25-.25-.39-.58-.39-.93s.14-.68.39-.93l7.44-7.44c.8-.79.93-2.01.33-2.97-1.91-3.03-3.28-6.34-4.07-9.82-.25-1.1-1.21-1.86-2.33-1.86H6.09c-.72,0-1.31-.59-1.31-1.31v-7.69c0-.72.59-1.31,1.31-1.31h10.51c1.12,0,2.08-.77,2.33-1.86.79-3.48,2.16-6.79,4.07-9.82.6-.95.46-2.17-.33-2.96l-7.44-7.44c-.25-.25-.38-.58-.38-.93s.14-.68.38-.93l5.44-5.44c.5-.5,1.36-.5,1.86,0l7.44,7.44c.79.79,2.01.93,2.97.33,3.03-1.91,6.33-3.28,9.82-4.07,1.1-.25,1.86-1.21,1.86-2.33V6.31c0-.72.59-1.31,1.31-1.31h7.69c.72,0,1.31.59,1.31,1.31v10.51c0,1.32,1.07,2.39,2.39,2.39s2.39-1.07,2.39-2.39V6.31c0-3.36-2.73-6.09-6.09-6.09h-7.69c-3.36,0-6.09,2.73-6.09,6.09v8.66c-2.72.77-5.33,1.85-7.8,3.23l-6.12-6.12c-1.15-1.15-2.68-1.78-4.31-1.78s-3.16.63-4.31,1.79l-5.44,5.44c-2.38,2.38-2.38,6.24,0,8.62l6.12,6.12c-1.38,2.47-2.46,5.09-3.23,7.8H6.09c-3.36,0-6.09,2.73-6.09,6.09v7.69c0,3.36,2.73,6.09,6.09,6.09h8.66c.77,2.71,1.85,5.33,3.23,7.8l-6.12,6.12c-2.38,2.38-2.38,6.24,0,8.62l5.44,5.44c1.15,1.15,2.68,1.79,4.31,1.79s3.16-.63,4.31-1.79l6.12-6.12c2.47,1.38,5.09,2.47,7.8,3.23v8.66c0,3.36,2.73,6.09,6.09,6.09h7.69c3.36,0,6.09-2.73,6.09-6.09v-10.51c0-1.32-1.07-2.39-2.39-2.39Z"></path>
  <path class="erdjmkgclo-cls-1" d="M49.78,31.5c1.32,0,2.39-1.07,2.39-2.39s-1.07-2.39-2.39-2.39c-6.22,0-12.06,2.42-16.46,6.82-4.4,4.4-6.82,10.24-6.82,16.46s2.42,12.06,6.82,16.46,10.24,6.82,16.46,6.82c1.32,0,2.39-1.07,2.39-2.39s-1.07-2.39-2.39-2.39c-10.2,0-18.5-8.3-18.5-18.5s8.3-18.5,18.5-18.5Z"></path>
  <path class="erdjmkgclo-cls-1" d="M78.94,29.83v5.85h-29.15c-1.04,0-1.88.84-1.88,1.88s.84,1.88,1.88,1.88h31.03c1.04,0,1.88-.84,1.88-1.88v-7.73c2.98-.84,5.1-3.6,5.1-6.72,0-3.85-3.13-6.97-6.98-6.97s-6.98,3.13-6.98,6.97c0,3.12,2.12,5.88,5.1,6.72Z"></path>
  <path class="erdjmkgclo-cls-1" d="M93.03,43.02c-3.12,0-5.88,2.12-6.72,5.1h-46.97c-1.04,0-1.88.84-1.88,1.88s.84,1.88,1.88,1.88h46.97c.83,2.98,3.59,5.1,6.72,5.1,3.85,0,6.97-3.13,6.97-6.97s-3.13-6.97-6.97-6.97Z"></path>
  <path class="erdjmkgclo-cls-1" d="M82.7,70.17v-7.73c0-1.04-.84-1.88-1.88-1.88h-31.03c-1.04,0-1.88.84-1.88,1.88s.84,1.88,1.88,1.88h29.15v5.85c-2.98.83-5.1,3.59-5.1,6.72,0,3.85,3.13,6.97,6.98,6.97s6.98-3.13,6.98-6.98c0-3.12-2.12-5.88-5.1-6.71Z"></path>
</svg>