<svg class="svg fill-white w-8 h-8" xmlns="http://www.w3.org/2000/svg" version="1.1" viewBox="0 0 100 100">
  <defs>
    <style>
      .cyzpeguykx-cls-1 {
        fill: #00a7ce;
      }
    </style>
  </defs>
  <g>
    <g id="cyzpeguykx-Layer_1">
      <path class="cyzpeguykx-cls-1" d="M41.8,73.2h16.3c1.1,0,2,.9,2,1.9v1.2c0,1.1-.9,1.9-2,1.9h-16.3c-1.1,0-2-.9-2-1.9v-1.2c0-1.1.9-1.9,2-1.9ZM34.1,56.1h31.4c1.3,0,2.4-1.1,2.4-2.4v-30.6c0-1.3-1.1-2.4-2.4-2.4h-31.4c-1.3,0-2.4,1.1-2.4,2.4v30.6c0,1.3,1.1,2.4,2.4,2.4ZM39.9,37.9c0-1.1.9-2,2-2h5.6v-5.6c0-1.1.9-2,2-2h1.2c1.1,0,2,.9,2,2v5.6h5.6c1.1,0,2,.9,2,2v1.2c0,1.1-.9,2-2,2h-5.6v5.6c0,1.1-.9,2-2,2h-1.2c-1.1,0-2-.9-2-2v-5.6h-5.6c-1.1,0-2-.9-2-2v-1.2ZM73.9,7.4h-14v-.7C59.9,3,56.9,0,53.2,0h-6.4c-3.7,0-6.8,3-6.8,6.8v.7h-14c-4.2,0-7.6,3.4-7.6,7.6v77.3c0,4.2,3.4,7.6,7.6,7.6h47.8c4.2,0,7.6-3.4,7.6-7.6V15.1c0-4.2-3.4-7.6-7.6-7.6h0ZM73.5,92H26.5V15.4h47.1v76.6h0Z"></path>
    </g>
  </g>
</svg>