<svg id="oppfqdxhpv-Layer_1" class="svg fill-white w-8 h-8" xmlns="http://www.w3.org/2000/svg" viewBox="0 0 100 100">
  <defs>
    <style>
      .oppfqdxhpv-cls-1 {
        fill: #00a7ce;
      }
    </style>
  </defs>
  <path class="oppfqdxhpv-cls-1" d="M0,0v100h100V0H0ZM89.92,89.93H10.07V10.08h79.85v79.85ZM29.4,64.13h-5.8v-22.7h5.66v3.2c.68-1.24,1.62-2.17,2.83-2.81,1.21-.63,2.58-.95,4.13-.95,3.44,0,5.71,1.43,6.82,4.27.71-1.33,1.73-2.37,3.06-3.13,1.33-.76,2.82-1.14,4.45-1.14,2.57,0,4.49.77,5.76,2.3,1.27,1.53,1.91,3.88,1.91,7.03v13.93h-5.8v-13.69c0-1.73-.3-2.99-.88-3.78-.59-.79-1.53-1.19-2.83-1.19-1.55,0-2.75.53-3.62,1.58-.87,1.05-1.3,2.52-1.3,4.41v12.67h-5.8v-13.69c0-1.73-.29-2.99-.86-3.78-.57-.79-1.52-1.19-2.85-1.19-1.52,0-2.71.53-3.57,1.58-.87,1.05-1.3,2.52-1.3,4.41v12.67ZM63.7,36.88l-1.02-3.67c.9-.59,1.99-1.07,3.29-1.44,1.3-.37,2.58-.56,3.85-.56,2.04,0,3.67.51,4.89,1.53,1.22,1.02,1.83,2.35,1.83,3.99,0,1.12-.26,2.17-.79,3.18-.53,1.01-1.47,2.16-2.83,3.46l-3.76,3.67h7.89v3.99h-13.74v-3.67l6.31-6.78c1.24-1.33,1.86-2.51,1.86-3.53,0-1.33-.83-1.99-2.51-1.99-.8,0-1.67.15-2.6.46-.93.31-1.83.76-2.69,1.35Z"></path>
</svg>