<svg id="ihzaiqgaws-Layer_1" class="svg fill-primary w-full h-full" xmlns="http://www.w3.org/2000/svg" viewBox="0 0 100 100">
  <defs>
    <style>
      .ihzaiqgaws-cls-1 {
        fill: #00a7ce;
      }
    </style>
  </defs>
  <path class="ihzaiqgaws-cls-1" d="M97.52,93.34h-.01v-39.25c0-.17-.02-.34-.05-.5h.3c.54,0,1.04-.29,1.3-.77s.25-1.05-.04-1.51l-6.55-10.44c-.27-.43-.75-.7-1.26-.7h-20.48v-8.02c.32.06.66.02.96-.14.48-.26.78-.76.78-1.31v-13.07c0-.5-.25-.97-.67-1.24l-4.3-2.81V3.2c0-.82-.66-1.49-1.49-1.49h-5.22c-.82,0-1.49.66-1.49,1.49v5.03l-8.51-5.57c-.49-.32-1.13-.32-1.63,0l-20.99,13.75c-.42.27-.67.74-.67,1.24v13.07c0,.55.3,1.05.78,1.31.22.12.46.18.71.18.09,0,.17-.02.26-.04v8.03H8.79c-.51,0-.99.26-1.26.7L.98,51.32c-.29.46-.3,1.04-.04,1.51s.76.77,1.3.77h.3c-.03.16-.05.33-.05.5v39.25h-.02c-1.37,0-2.48,1.11-2.48,2.48s1.11,2.48,2.48,2.48h95.05c1.37,0,2.48-1.11,2.48-2.48s-1.11-2.48-2.48-2.48ZM29.27,93.34H7.44v-39.25c0-.17-.02-.34-.05-.5h21.88v39.74ZM48.14,93.34h-4.98v-17.66h4.98v17.66ZM57.09,93.34h-4.98v-17.66h4.98v17.66ZM65.78,93.34h-4.73v-19.64c0-1.09-.89-1.98-1.98-1.98h-17.88c-1.09,0-1.98.89-1.98,1.98v19.64h-4.98V29.08l15.78-10.34,15.78,10.34v64.26ZM92.56,54.09v39.25h-21.83v-39.74h21.88c-.03.16-.05.33-.05.5Z"></path>
  <path class="ihzaiqgaws-cls-1" d="M37.22,38.7c0,7.05,5.74,12.78,12.78,12.78s12.78-5.74,12.78-12.78-5.74-12.78-12.78-12.78-12.78,5.74-12.78,12.78ZM58.82,38.7c0,4.87-3.96,8.82-8.82,8.82s-8.82-3.96-8.82-8.82,3.96-8.82,8.82-8.82,8.82,3.96,8.82,8.82Z"></path>
  <path class="ihzaiqgaws-cls-1" d="M47.87,33.3v5.4c0,1.09.89,1.98,1.98,1.98h5.4c1.09,0,1.98-.89,1.98-1.98s-.89-1.98-1.98-1.98h-3.42v-3.42c0-1.09-.89-1.98-1.98-1.98s-1.98.89-1.98,1.98Z"></path>
  <path class="ihzaiqgaws-cls-1" d="M13.23,88.37h9.56c1.09,0,1.98-.89,1.98-1.98v-9.56c0-1.09-.89-1.98-1.98-1.98h-9.56c-1.09,0-1.98.89-1.98,1.98v9.56c0,1.09.89,1.98,1.98,1.98ZM15.21,78.82h5.6v5.6h-5.6v-5.6Z"></path>
  <path class="ihzaiqgaws-cls-1" d="M13.23,72.53h9.56c1.09,0,1.98-.89,1.98-1.98v-9.56c0-1.09-.89-1.98-1.98-1.98h-9.56c-1.09,0-1.98.89-1.98,1.98v9.56c0,1.09.89,1.98,1.98,1.98ZM15.21,62.97h5.6v5.6h-5.6v-5.6Z"></path>
  <path class="ihzaiqgaws-cls-1" d="M76.85,88.37h9.56c1.09,0,1.98-.89,1.98-1.98v-9.56c0-1.09-.89-1.98-1.98-1.98h-9.56c-1.09,0-1.98.89-1.98,1.98v9.56c0,1.09.89,1.98,1.98,1.98ZM78.83,78.82h5.6v5.6h-5.6v-5.6Z"></path>
  <path class="ihzaiqgaws-cls-1" d="M76.85,72.53h9.56c1.09,0,1.98-.89,1.98-1.98v-9.56c0-1.09-.89-1.98-1.98-1.98h-9.56c-1.09,0-1.98.89-1.98,1.98v9.56c0,1.09.89,1.98,1.98,1.98ZM78.83,62.97h5.6v5.6h-5.6v-5.6Z"></path>
</svg>