<svg id="efqfjocmqr-Layer_1" class="svg fill-primary w-full h-full" xmlns="http://www.w3.org/2000/svg" viewBox="0 0 100 100">
  <defs>
    <style>
      .efqfjocmqr-cls-1 {
        fill: #00a7ce;
      }
    </style>
  </defs>
  <path class="efqfjocmqr-cls-1" d="M94.79,22.55c-.07-1.35-1.19-2.4-2.54-2.4h-24.14v-2.03c0-9.99-8.12-18.11-18.11-18.11-11.34,0-18.11,6.77-18.11,18.11v2.03H7.75c-1.35,0-2.46,1.06-2.54,2.4L1.14,97.32c-.04.7.21,1.38.69,1.89s1.15.79,1.84.79h92.64c.7,0,1.36-.29,1.85-.79.48-.51.73-1.19.69-1.89l-4.07-74.77ZM36.97,18.11c0-8.65,4.38-13.03,13.03-13.03,7.19,0,13.03,5.85,13.03,13.03v2.03h-26.06v-2.03ZM6.36,94.92l3.79-69.69h21.74v8.95c0,1.4,1.14,2.54,2.54,2.54s2.54-1.14,2.54-2.54v-8.95h26.06v8.95c0,1.4,1.14,2.54,2.54,2.54s2.54-1.14,2.54-2.54v-8.95h21.74l3.79,69.69H6.36Z"></path>
</svg>