<svg id="gctiblwzbx-Layer_1" class="svg fill-white w-6 h-6" xmlns="http://www.w3.org/2000/svg" viewBox="0 0 100 100">
  <defs>
    <style>
      .gctiblwzbx-cls-1 {
        fill: #fff;
      }
    </style>
  </defs>
  <path class="gctiblwzbx-cls-1" d="M80.24,42.15h-7.7c.06-.67.1-1.34.1-2.02v-17.04C72.65,10.36,62.29,0,49.55,0s-23.09,10.36-23.09,23.09v17.04c0,.68.04,1.35.1,2.02h-6.8c-2.48,0-4.51,2.03-4.51,4.51v48.82c0,2.48,2.03,4.51,4.51,4.51h60.48c2.48,0,4.51-2.03,4.51-4.51v-48.82c0-2.48-2.03-4.51-4.51-4.51ZM51.46,75.99v12.12h-3.81v-12.12c-3.66-.86-6.39-4.13-6.39-8.05,0-4.58,3.71-8.3,8.3-8.3s8.3,3.71,8.3,8.3c0,3.92-2.73,7.19-6.39,8.05ZM65.47,40.13c0,.68-.06,1.36-.14,2.02h-31.55c-.08-.66-.14-1.33-.14-2.02v-17.04c0-8.78,7.14-15.92,15.92-15.92s15.92,7.14,15.92,15.92v17.04Z"></path>
</svg>