<svg id="jlugxdimig-Layer_1" class="svg fill-white w-8 h-8" xmlns="http://www.w3.org/2000/svg" viewBox="0 0 100 100">
  <defs>
    <style>
      .jlugxdimig-cls-1 {
        fill: #00a7ce;
      }
    </style>
  </defs>
  <path class="jlugxdimig-cls-1" d="M50,90.76c-18.2,0-33.01-14.8-33.01-33.01S31.8,24.75,50,24.75s33.01,14.81,33.01,33.01-14.81,33.01-33.01,33.01M53.84,15.69v-4.47h5.94V0h-21.79v11.22h5.94v4.72C23.5,18.9,7.75,36.52,7.75,57.75c0,23.3,18.95,42.25,42.25,42.25s42.25-18.95,42.25-42.25c0-22-16.9-40.11-38.4-42.06M69.94,57.01h-15.09c-.5-1.56-1.73-2.79-3.29-3.29v-23.89c0-.86-.7-1.56-1.56-1.56s-1.56.7-1.56,1.56v23.89c-2.05.66-3.54,2.58-3.54,4.85,0,2.82,2.28,5.1,5.1,5.1,2.27,0,4.19-1.49,4.85-3.54h15.09c.86,0,1.56-.7,1.56-1.56s-.7-1.56-1.56-1.56"></path>
</svg>