<svg id="tsjdzxmkfx-Layer_1" class="svg fill-primary w-full h-full" xmlns="http://www.w3.org/2000/svg" viewBox="0 0 100 100">
  <defs>
    <style>
      .tsjdzxmkfx-cls-1 {
        fill: #00a7ce;
      }
    </style>
  </defs>
  <g id="tsjdzxmkfx-Production">
    <path class="tsjdzxmkfx-cls-1" d="M97.96,2.46c-5.37-5.37-15.35,1-21.03,6.68l-19.8,18.93-18.45-3.91c1.03-2.28.62-5.06-1.26-6.94-2.42-2.42-6.34-2.42-8.76,0l-3.97,3.97-14.98-3.18c-.64-.14-1.31.06-1.78.53l-6.18,6.18c-.94.94-.68,2.54.52,3.12l36.97,18.11-19.26,19.26-12.95-2.03c-.61-.1-1.24.11-1.68.55l-4.79,4.79c-.98.98-.65,2.64.62,3.17l19.02,7.96,7.64,18.7c.53,1.29,2.19,1.62,3.18.64l4.79-4.79c.44-.44.64-1.05.55-1.66l-1.93-13.08,19.16-19.16,18.11,36.97c.58,1.19,2.17,1.47,3.12.52l6.18-6.18c.47-.47.66-1.14.53-1.78l-3.18-14.98,3.97-3.97c2.42-2.42,2.42-6.34,0-8.76-1.88-1.88-4.66-2.29-6.94-1.26l-3.92-18.45,19.8-18.93c5.73-5.73,12.04-15.66,6.67-21.03Z"></path>
  </g>
</svg>